<svg width="20" height="17" viewBox="0 0 20 17" fill="none" xmlns="http://www.w3.org/2000/svg">
<path d="M18.5265 0.630141L1.4295 7.10529C0.494569 7.37491 0.524362 8.29871 1.2167 8.52434L5.49981 9.86109L7.13843 14.8874C7.33847 15.438 7.50162 15.6452 7.84779 15.6494C8.19396 15.6537 8.34292 15.5245 8.71463 15.1953C9.14876 14.7866 9.8113 14.1438 10.8583 13.1263L15.3145 16.42C16.1345 16.8726 16.7261 16.6371 16.9304 15.6579L19.7239 1.83634C20.0161 0.63156 19.311 0.273958 18.5265 0.630141ZM6.17228 9.55174L15.9118 3.43987C16.3913 3.11774 16.5417 3.47676 16.3246 3.72368L8.23794 10.9963L7.82367 14.6263L6.17228 9.55174Z" fill="white"/>
</svg>
