<svg width="23" height="14" viewBox="0 0 23 14" fill="none" xmlns="http://www.w3.org/2000/svg">
<path fill-rule="evenodd" clip-rule="evenodd" d="M11.33 13.0872H12.6949C12.6949 13.0872 13.1063 13.0418 13.3177 12.8148C13.5291 12.5878 13.5049 12.2161 13.5049 12.2161C13.5049 12.2161 13.478 10.3845 14.3278 10.115C15.1776 9.84543 16.2417 11.8841 17.3809 12.6687C18.2435 13.2603 18.8989 13.1312 18.8989 13.1312L21.9477 13.0886C21.9477 13.0886 23.5424 12.9893 22.7862 11.7366C22.7238 11.633 22.345 10.8087 20.5163 9.11337C18.6038 7.33855 18.8606 7.62655 21.1632 4.55644C22.5663 2.68799 23.1267 1.54734 22.9508 1.05788C22.7848 0.592544 21.7534 0.714554 21.7534 0.714554L18.3201 0.737253C18.1681 0.718685 18.0139 0.745852 17.8774 0.815283C17.7471 0.910443 17.6427 1.03678 17.5738 1.18273C17.2184 2.10546 16.7944 3.00033 16.3055 3.85985C14.7804 6.45327 14.1689 6.58521 13.9192 6.42915C13.3375 6.05319 13.4837 4.92105 13.4837 4.11522C13.4837 1.59983 13.8653 0.551401 12.7403 0.284682C12.3671 0.193884 12.0919 0.134298 11.1385 0.124367C9.91275 0.113017 8.87708 0.124366 8.28973 0.416622C7.90384 0.602475 7.5974 1.02951 7.78183 1.05221C8.00883 1.082 8.5224 1.19408 8.7948 1.56153C9.14664 2.03964 9.13387 3.12212 9.13387 3.12212C9.13387 3.12212 9.33675 6.08298 8.66144 6.45043C8.19894 6.70296 7.56477 6.18797 6.20138 3.8329C5.7389 3.01369 5.32993 2.16542 4.97703 1.29339C4.91374 1.14565 4.81653 1.01491 4.69328 0.911756C4.53396 0.806081 4.35493 0.733696 4.16694 0.698948L0.903882 0.71881C0.903882 0.71881 0.414424 0.732997 0.234246 0.945805C0.0753498 1.13591 0.221478 1.52748 0.221478 1.52748C0.221478 1.52748 2.77517 7.5017 5.66794 10.5136C8.31953 13.2745 11.33 13.0929 11.33 13.0929V13.0872Z" fill="white"/>
</svg>
